<svg width="38" height="14" viewBox="0 0 38 14" fill="none" xmlns="http://www.w3.org/2000/svg">
<path d="M19.7758 4.34918V3.6536H21.9086V13.4257H20.6894C20.4481 13.4261 20.2164 13.3331 20.0452 13.1671C19.8739 13.0011 19.7771 12.7755 19.7758 12.54V12.5415C18.8856 13.1777 17.8106 13.5199 16.7073 13.5184C15.3288 13.5184 14.0068 12.984 13.0317 12.0327C12.0567 11.0814 11.5085 9.79108 11.5077 8.44534C11.5085 7.0996 12.0567 5.80925 13.0317 4.85796C14.0068 3.90666 15.3288 3.37228 16.7073 3.37228C17.8101 3.37106 18.8844 3.71328 19.7743 4.34918H19.7758ZM10.9551 0.512695V0.829568C10.9551 1.42003 10.8743 1.9023 10.4801 2.46803L10.4326 2.52059C10.3012 2.66439 10.1735 2.81127 10.0494 2.96112L3.20467 11.3482H10.9551V12.5353C10.9551 12.6524 10.9314 12.7683 10.8855 12.8764C10.8396 12.9845 10.7723 13.0827 10.6874 13.1654C10.6026 13.2481 10.5018 13.3137 10.391 13.3583C10.2802 13.403 10.1614 13.4259 10.0415 13.4257H0V12.8661C0 12.1813 0.174167 11.8753 0.395833 11.5569L7.69025 2.73853H0.304V0.512695H10.9567H10.9551ZM24.4942 13.4257C24.2926 13.4257 24.0993 13.3475 23.9568 13.2083C23.8142 13.0692 23.7342 12.8805 23.7342 12.6837V0.512695H26.0158V13.4257H24.4942ZM32.7639 3.31045C33.4513 3.31025 34.132 3.44223 34.7672 3.69885C35.4024 3.95547 35.9795 4.33171 36.4657 4.80609C36.952 5.28047 37.3377 5.84369 37.6009 6.46361C37.8642 7.08352 37.9998 7.74799 38 8.41906C38.0002 9.09014 37.865 9.75468 37.6022 10.3748C37.3393 10.9948 36.9539 11.5583 36.468 12.0329C35.982 12.5076 35.4051 12.8842 34.7701 13.1412C34.1351 13.3982 33.4545 13.5306 32.7671 13.5308C31.3788 13.5312 30.0472 12.9932 29.0653 12.0351C28.0833 11.0771 27.5314 9.77745 27.531 8.42215C27.5306 7.06685 28.0817 5.7669 29.063 4.80827C30.0444 3.84964 31.3756 3.31086 32.7639 3.31045ZM16.7089 11.4301C17.1164 11.4392 17.5216 11.3686 17.9007 11.2227C18.2799 11.0767 18.6253 10.8582 18.9168 10.5801C19.2083 10.302 19.4398 9.96979 19.598 9.60306C19.7561 9.23633 19.8375 8.84245 19.8375 8.44457C19.8375 8.04668 19.7561 7.6528 19.598 7.28607C19.4398 6.91934 19.2083 6.58716 18.9168 6.30902C18.6253 6.03089 18.2799 5.81243 17.9007 5.66645C17.5216 5.52048 17.1164 5.44995 16.7089 5.459C15.9099 5.47675 15.1497 5.7991 14.591 6.35707C14.0323 6.91503 13.7195 7.66431 13.7195 8.44457C13.7195 9.22483 14.0323 9.9741 14.591 10.5321C15.1497 11.09 15.9099 11.4124 16.7089 11.4301ZM32.7639 11.4255C33.5807 11.4255 34.364 11.1087 34.9415 10.5449C35.519 9.98111 35.8435 9.21642 35.8435 8.41906C35.8435 7.62171 35.519 6.85701 34.9415 6.2932C34.364 5.72938 33.5807 5.41263 32.7639 5.41263C31.9472 5.41263 31.1639 5.72938 30.5863 6.2932C30.0088 6.85701 29.6843 7.62171 29.6843 8.41906C29.6843 9.21642 30.0088 9.98111 30.5863 10.5449C31.1639 11.1087 31.9472 11.4255 32.7639 11.4255Z" fill="black"/>
</svg>
